<svg height="512pt" viewBox="-1 0 512 512" width="512pt" xmlns="http://www.w3.org/2000/svg"><path d="m191.449219 397.121094h126.738281v91.308594h-126.738281zm0 0" fill="#a86552"/><path d="m318.1875 397.121094v37.757812c-.359375-.089844-.710938-.1875-1.070312-.289062l-27.527344-7.859375c-11.3125-3.230469-23.011719-4.871094-34.773438-4.871094-11.757812 0-23.457031 1.640625-34.769531 4.871094l-27.527344 7.859375c-.363281.101562-.710937.199218-1.070312.289062v-37.757812zm0 0" fill="#915040"/><path d="m206.097656 145.449219h97.441406v97.441406h-97.441406zm0 0" fill="#fc4830"/><path d="m303.539062 145.449219v33.460937c-.410156 0-.832031.011719-1.242187.011719h-23.167969l-5.511718 9.136719c-4.007813 6.652344-11.027344 10.621094-18.800782 10.621094-7.769531 0-14.789062-3.96875-18.796875-10.621094l-5.511719-9.136719h-23.167968c-.410156 0-.832032-.011719-1.242188-.011719v-33.460937zm0 0" fill="#e81610"/><path d="m206.097656 215.050781h97.441406v27.84375h-97.441406zm0 0" fill="#e81610"/><path d="m191.707031 152.988281h28.78125v94.550781h-28.78125zm0 0" fill="#00df97"/><path d="m191.707031 152.988281h28.78125v25.933594h-13.148437c-5.511719 0-10.78125-1.023437-15.632813-2.890625zm0 0" fill="#00b579"/><path d="m191.707031 215.050781h28.78125v32.488281h-28.78125zm0 0" fill="#00b579"/><path d="m289.148438 152.988281h28.78125v94.550781h-28.78125zm0 0" fill="#00df97"/><path d="m317.929688 152.988281v23.042969c-4.851563 1.867188-10.121094 2.890625-15.632813 2.890625h-13.148437v-25.933594zm0 0" fill="#00b579"/><path d="m289.148438 215.050781h28.78125v32.488281h-28.78125zm0 0" fill="#00b579"/><path d="m502.136719 60.988281v11.058594c0 1.78125-.070313 3.542969-.21875 5.285156-2.675781 33.28125-30.554688 59.457031-64.53125 59.457031h-117.3125v-85.332031h172.527343c5.265626 0 9.535157 4.269531 9.535157 9.53125zm0 0" fill="#fc4830"/><path d="m501.917969 77.332031c-2.675781 33.28125-30.554688 59.457031-64.53125 59.457031h-117.3125v-59.457031zm0 0" fill="#fab03c"/><path d="m189.558594 51.457031v85.332031h-117.308594c-33.976562 0-61.855469-26.175781-64.53125-59.457031-.148438-1.742187-.21875-3.503906-.21875-5.285156v-11.058594c0-5.261719 4.269531-9.53125 9.535156-9.53125zm0 0" fill="#fc4830"/><path d="m7.71875 77.332031h181.839844v59.457031h-117.308594c-33.976562 0-61.855469-26.175781-64.53125-59.457031zm0 0" fill="#fab03c"/><path d="m333.941406 37.183594v98.101562c0 17.476563-14.164062 31.640625-31.640625 31.640625h-94.964843c-17.476563 0-31.640626-14.164062-31.640626-31.640625v-98.101562c0-5.851563 4.738282-10.589844 10.589844-10.589844h137.066406c5.851563 0 10.589844 4.738281 10.589844 10.589844zm0 0" fill="#fab03c"/><path d="m333.941406 59.128906v76.15625c0 17.476563-14.164062 31.640625-31.640625 31.640625h-27.964843c-5.753907-10.410156-9.027344-22.386719-9.027344-35.132812 0-38.804688 30.363281-70.515625 68.632812-72.664063zm0 0" fill="#f1eded"/><path d="m244.328125 131.792969c0 12.746093-3.273437 24.722656-9.027344 35.132812h-27.964843c-17.476563 0-31.640626-14.164062-31.640626-31.640625v-76.15625c38.269532 2.148438 68.632813 33.859375 68.632813 72.664063zm0 0" fill="#f1eded"/><path d="m332.496094 38.140625h-155.355469c-8.460937 0-15.320313-6.859375-15.320313-15.320313 0-8.460937 6.859376-15.320312 15.320313-15.320312h155.355469c8.460937 0 15.320312 6.859375 15.320312 15.320312 0 8.460938-6.859375 15.320313-15.320312 15.320313zm0 0" fill="#fbdbb7"/><path d="m372.304688 504.5h-234.976563c-8.460937 0-15.320313-6.859375-15.320313-15.320312 0-8.460938 6.859376-15.320313 15.320313-15.320313h234.976563c8.464843 0 15.324218 6.859375 15.324218 15.320313 0 8.460937-6.863281 15.320312-15.324218 15.320312zm0 0" fill="#fbdbb7"/><path d="m249.289062 129.429688-16.761718 11.203124c-4.421875 2.953126-5.742188 8.855469-2.996094 13.410157l16.761719 27.820312c3.871093 6.421875 13.179687 6.421875 17.050781 0l16.761719-27.820312c2.746093-4.554688 1.425781-10.457031-2.992188-13.410157l-16.765625-11.203124c-3.347656-2.238282-7.710937-2.238282-11.058594 0zm0 0" fill="#f8e98e"/><path d="m353.261719 260.214844v68.101562h-196.886719v-68.101562c0-14.53125 9.339844-26.875 22.339844-31.359375 3.390625-1.167969 7.03125-1.808594 10.824218-1.808594h130.558594c3.792969 0 7.433594.640625 10.824219 1.808594 13 4.484375 22.339844 16.828125 22.339844 31.359375zm0 0" fill="#fab03c"/><path d="m353.261719 260.214844v68.101562h-40.652344c-20.679687-11.949218-34.597656-34.300781-34.597656-59.902344 0-15.507812 5.105469-29.832031 13.738281-41.363281h28.347656c3.792969 0 7.433594.636719 10.824219 1.804688 13 4.484375 22.339844 16.828125 22.339844 31.359375zm0 0" fill="#f1eded"/><path d="m353.261719 260.214844v68.101562h-.179688c-20.679687-11.949218-34.59375-34.300781-34.59375-59.902344 0-14.710937 4.59375-28.347656 12.433594-39.558593 13 4.484375 22.339844 16.828125 22.339844 31.359375zm0 0" fill="#6d6d6d"/><path d="m231.621094 268.410156c0 25.605469-13.914063 47.957032-34.59375 59.902344h-40.652344v-68.101562c0-14.527344 9.339844-26.871094 22.339844-31.355469 3.390625-1.171875 7.03125-1.808594 10.824218-1.808594h28.347657c8.628906 11.535156 13.734375 25.855469 13.734375 41.363281zm0 0" fill="#f1eded"/><path d="m191.148438 268.410156c0 25.605469-13.917969 47.957032-34.59375 59.902344h-.179688v-68.101562c0-14.527344 9.339844-26.871094 22.339844-31.355469 7.839844 11.210937 12.433594 24.847656 12.433594 39.554687zm0 0" fill="#6d6d6d"/><path d="m320.410156 423.050781-27.53125-7.863281c-24.875-7.105469-51.246094-7.105469-76.125 0l-27.527344 7.863281c-18.945312 5.410157-37.796874-8.816406-37.796874-28.515625v-58.199218c0-19.699219 18.855468-33.921876 37.796874-28.511719l27.527344 7.863281c24.878906 7.101562 51.25 7.101562 76.125 0l27.53125-7.863281c18.941406-5.410157 37.796875 8.8125 37.796875 28.511719v58.199218c0 19.703125-18.855469 33.925782-37.796875 28.515625zm0 0" fill="#fc4830"/><path d="m328.609375 397.238281c-.25 0-.507813-.039062-.792969-.121093l-27.527344-7.863282c-14.792968-4.222656-30.089843-6.367187-45.46875-6.367187-15.382812 0-30.679687 2.144531-45.46875 6.367187l-27.53125 7.863282c-.285156.082031-.542968.121093-.792968.121093-.925782 0-1.605469-.566406-1.855469-.8125-.683594-.671875-.769531-1.363281-.769531-1.890625v-58.199218c0-1.90625 1.707031-2.699219 2.625-2.699219.246094 0 .507812.039062.792968.121093l27.53125 7.859376c14.789063 4.226562 30.085938 6.367187 45.46875 6.367187 15.378907 0 30.675782-2.140625 45.46875-6.367187l27.527344-7.859376c.285156-.082031.546875-.121093.792969-.121093.917969 0 2.628906.792969 2.628906 2.699219v58.199218c-.003906 1.910156-1.714843 2.703125-2.628906 2.703125zm0 0" fill="#f1eded"/><path d="m492.601562 43.953125h-43.121093c-4.140625 0-7.5 3.359375-7.5 7.5 0 4.144531 3.359375 7.5 7.5 7.5h43.121093c1.121094 0 2.035157.914063 2.035157 2.035156v8.84375h-153.195313v-10.878906h75.378906c4.144532 0 7.5-3.355469 7.5-7.5 0-4.140625-3.355468-7.5-7.5-7.5h-75.378906v-.140625c8.148438-3.484375 13.875-11.582031 13.875-20.992188 0-12.582031-10.238281-22.820312-22.820312-22.820312h-23.679688c-4.144531 0-7.5 3.359375-7.5 7.5s3.355469 7.5 7.5 7.5h23.679688c4.3125 0 7.820312 3.507812 7.820312 7.820312s-3.507812 7.820313-7.820312 7.820313h-155.355469c-4.3125 0-7.820313-3.507813-7.820313-7.820313s3.507813-7.820312 7.820313-7.820312h99.011719c4.144531 0 7.5-3.359375 7.5-7.5s-3.355469-7.5-7.5-7.5h-99.011719c-12.585937 0-22.820313 10.238281-22.820313 22.820312 0 9.410157 5.726563 17.507813 13.875 20.992188v.140625h-151.164062c-9.390625 0-17.03125 7.644531-17.03125 17.035156v11.054688c0 39.839843 32.410156 72.25 72.25 72.25h97.003906c2.171875 9.179687 7.574219 17.117187 14.949219 22.539062v53.074219c-2.597656.34375-5.121094.929688-7.542969 1.742188-.230468.066406-.457031.140624-.679687.230468-15.773438 5.597656-27.105469 20.664063-27.105469 38.332032v57.542968c-3.210938 5.550782-4.945312 11.914063-4.945312 18.582032v58.199218c0 11.765625 5.386718 22.574219 14.777343 29.660156 6.5625 4.949219 14.328125 7.519532 22.273438 7.519532.988281 0 1.976562-.050782 2.96875-.128906v34.769531h-46.621094c-12.582031 0-22.816406 10.238281-22.816406 22.824219 0 12.582031 10.234375 22.820312 22.816406 22.820312h234.980469c12.582031 0 22.820312-10.238281 22.820312-22.820312 0-12.582032-10.238281-22.820313-22.820312-22.820313h-46.621094v-34.777344c8.960938.722657 17.867188-1.820312 25.242188-7.386719 9.390624-7.082031 14.777343-17.894531 14.777343-29.660156v-15.207031c0-4.140625-3.359375-7.5-7.5-7.5-4.144531 0-7.5 3.359375-7.5 7.5v15.207031c0 7.015625-3.214843 13.460938-8.8125 17.6875-5.601562 4.222656-12.679687 5.542969-19.425781 3.617188l-27.53125-7.863282c-26.246094-7.496093-53.996094-7.496093-80.242188 0l-27.53125 7.863282c-6.742187 1.925781-13.824218.605468-19.425781-3.617188-5.597656-4.226562-8.808593-10.671875-8.808593-17.6875v-58.199218c0-7.015626 3.210937-13.460938 8.808593-17.683594 5.601563-4.226563 12.6875-5.542969 19.425781-3.617188l27.53125 7.859375c26.246094 7.5 53.996094 7.496094 80.242188 0l27.53125-7.859375c6.75-1.929687 13.824219-.609375 19.425781 3.613282 5.597657 4.226562 8.8125 10.671874 8.8125 17.6875v10.332031c0 4.144531 3.355469 7.5 7.5 7.5 4.140625 0 7.5-3.355469 7.5-7.5v-10.332031c0-6.667969-1.734375-13.03125-4.945312-18.582032v-57.542968c0-17.664063-11.328125-32.730469-27.097657-38.328126-.230468-.09375-.460937-.171874-.691406-.238281-2.421875-.808593-4.941406-1.398437-7.539062-1.738281v-53.074219c7.375-5.421875 12.777344-13.359375 14.949218-22.539062h97.003907c39.839843 0 72.25-32.414063 72.25-72.25v-11.054688c0-9.390625-7.640625-17.035156-17.035157-17.035156zm-112.472656 445.226563c0 4.3125-3.511718 7.820312-7.820312 7.820312h-234.980469c-4.3125 0-7.816406-3.507812-7.816406-7.820312s3.507812-7.820313 7.816406-7.820313h234.980469c4.308594 0 7.820312 3.507813 7.820312 7.820313zm-161.3125-66.78125c23.550782-6.726563 48.453125-6.726563 72.003906 0l19.867188 5.675781v38.28125h-21.652344v-9.582031c0-4.140626-3.355468-7.5-7.5-7.5-4.144531 0-7.5 3.359374-7.5 7.5v9.582031h-11.71875v-23.582031c0-4.140626-3.355468-7.5-7.5-7.5-4.140625 0-7.5 3.359374-7.5 7.5v23.582031h-11.714844v-9.582031c0-4.140626-3.359374-7.5-7.5-7.5-4.144531 0-7.5 3.359374-7.5 7.5v9.582031h-21.652343v-38.28125zm62.828125-247.972657v45.121094h-53.652343v-45.121094h5.0625l6.816406 11.308594c3.1875 5.289063 8.773437 8.445313 14.945312 8.445313 6.175782 0 11.761719-3.15625 14.949219-8.445313l6.816406-11.308594zm37.214844 60.121094c-5.175781 10.46875-7.871094 21.988281-7.871094 33.863281 0 11.226563 2.445313 22.214844 7.117188 32.269532l-19.59375 5.597656c-8.398438-10.785156-13-24.121094-13-37.867188 0-12.183594 3.503906-23.8125 10.144531-33.863281zm-94.738281 33.863281c0 13.757813-4.601563 27.078125-13.007813 37.863282l-19.582031-5.589844c4.671875-10.054688 7.117188-21.039063 7.117188-32.269532 0-11.878906-2.695313-23.398437-7.871094-33.867187h23.203125c6.640625 10.050781 10.140625 21.679687 10.140625 33.863281zm49.5625-118.238281-16.765625 27.824219c-.621094 1.03125-1.582031 1.1875-2.101563 1.1875-.515625 0-1.476562-.15625-2.101562-1.1875l-16.761719-27.824219c-.679687-1.125-.355469-2.574219.738281-3.304687l16.761719-11.203126c.414063-.273437.890625-.414062 1.363281-.414062s.949219.136719 1.363282.414062l16.761718 11.203126c1.09375.730468 1.417969 2.179687.742188 3.304687zm-15.09375-29.515625c-2.484375-.554688-5.058594-.554688-7.542969 0-4.886719-35.097656-32.507813-63.160156-67.851563-68.289062v-6.726563h143.242188v6.726563c-35.339844 5.128906-62.964844 33.191406-67.847656 68.289062zm-241.558594-61.703125h151.164062v10.878906h-153.195312v-8.84375c0-1.121093.910156-2.035156 2.03125-2.035156zm-.574219 25.878906h151.738281v44.460938h-8.824218v-28.175781c0-4.140626-3.355469-7.5-7.5-7.5-4.144532 0-7.5 3.359374-7.5 7.5v28.175781h-5.734375v-28.175781c0-4.140626-3.359375-7.5-7.5-7.5-4.144531 0-7.5 3.359374-7.5 7.5v28.175781h-5.738281v-28.175781c0-4.140626-3.355469-7.5-7.5-7.5-4.140626 0-7.5 3.359374-7.5 7.5v28.175781h-5.734376v-28.175781c0-4.140626-3.359374-7.5-7.5-7.5-4.144531 0-7.5 3.359374-7.5 7.5v28.175781h-5.738281v-28.175781c0-4.140626-3.355469-7.5-7.5-7.5s-7.5 3.359374-7.5 7.5v27.136718c-22.242187-4.277344-39.933593-21.457031-44.96875-43.421875zm166.738281-17.265625c29.671876 5.335938 52.167969 30.644532 53.558594 61.21875l-8.394531 5.609375c-7.765625 5.191407-10.070313 15.519531-5.253906 23.519531l.914062 1.511719h-16.6875c-13.308593 0-24.136719-10.828125-24.136719-24.136719zm24.132813 106.859375h5.664063v45.121094h-13.789063v-45.976563c2.625.554688 5.339844.855469 8.125.855469zm-43.453125 128.980469v-43.195312c0-9.140626 4.808594-17.175782 12.023438-21.722657 5.082031 9.113281 7.75 19.339844 7.75 29.921875 0 11.042969-2.925782 21.789063-8.484376 31.226563-3.914062.628906-7.722656 1.890625-11.289062 3.769531zm62.710938 7.019531c8.136718-12.414062 12.535156-27.007812 12.535156-42.015625 0-11.917968-2.703125-23.414062-7.875-33.863281h47.140625c-5.171875 10.449219-7.875 21.945313-7.875 33.863281 0 14.996094 4.410156 29.597656 12.546875 42.011719-18.609375 4.109375-37.863282 4.109375-56.472656.003906zm119.175781-7.019531c-3.566407-1.878906-7.375-3.136719-11.289063-3.769531-5.558594-9.4375-8.488281-20.1875-8.488281-31.226563 0-10.582031 2.671875-20.808594 7.753906-29.921875 7.214844 4.546875 12.023438 12.582031 12.023438 21.722657zm-35.328125-83.859375h-13.789063v-45.121094h5.660157c2.789062 0 5.503906-.300781 8.128906-.855469zm-8.128906-60.121094h-16.6875l.914062-1.515625c4.816406-7.996094 2.511719-18.328125-5.253906-23.515625l-8.394532-5.609375c1.390626-30.574218 23.886719-55.886718 53.558594-61.21875v67.722656c0 13.308594-10.828125 24.136719-24.136718 24.136719zm145.90625-31.171875v-27.136718c0-4.140626-3.355469-7.5-7.5-7.5-4.140626 0-7.5 3.359374-7.5 7.5v28.175781h-5.734376v-28.175781c0-4.140626-3.359374-7.5-7.5-7.5-4.144531 0-7.5 3.359374-7.5 7.5v28.175781h-5.738281v-28.175781c0-4.140626-3.355469-7.5-7.5-7.5-4.140625 0-7.5 3.359374-7.5 7.5v28.175781h-5.734375v-28.175781c0-4.140626-3.359375-7.5-7.5-7.5-4.144531 0-7.5 3.359374-7.5 7.5v28.175781h-5.738281v-28.175781c0-4.140626-3.355469-7.5-7.5-7.5-4.140625 0-7.5 3.359374-7.5 7.5v28.175781h-8.824219v-44.460938h151.738282c-5.035157 21.964844-22.726563 39.144531-44.96875 43.421875zm0 0"/><path d="m325.757812 326.546875-27.53125 7.859375c-14.117187 4.035156-28.722656 6.078125-43.410156 6.078125-14.683594 0-29.289062-2.042969-43.40625-6.078125l-27.527344-7.859375c-.953124-.273437-1.914062-.410156-2.855468-.410156-4.871094 0-10.125 3.898437-10.125 10.199219v58.199218c0 3.539063 1.644531 5.894532 3.019531 7.246094 1.917969 1.878906 4.507813 2.957031 7.105469 2.957031.941406 0 1.902344-.136719 2.851562-.410156l27.53125-7.863281c28.238282-8.0625 58.574219-8.0625 86.816406 0l27.527344 7.863281c.949219.273437 1.910156.410156 2.855469.410156 4.867187 0 10.125-3.898437 10.125-10.203125v-58.199218c0-6.300782-5.253906-10.199219-10.125-10.199219-.9375 0-1.898437.136719-2.851563.410156zm-108.910156 24.695313c10 2.25 20.175782 3.609374 30.417969 4.058593v20.269531c-10.242187.449219-20.417969 1.808594-30.417969 4.058594zm45.417969 4.0625c10.242187-.441407 20.417969-1.792969 30.414063-4.035157v28.335938c-10-2.242188-20.171876-3.597657-30.414063-4.039063zm-76.367187-12.582032 15.949218 4.554688v36.320312l-15.949218 4.554688zm137.835937 45.429688-16.054687-4.585938v-36.257812l16.054687-4.585938zm0 0"/></svg>